ply
format ascii 1.0
comment Created by Blender 2.81 (sub 16) - www.blender.org, source file: ''
element vertex 24
property float x
property float y
property float z
property float nx
property float ny
property float nz
property float s
property float t
property uchar red
property uchar green
property uchar blue
property uchar alpha
element face 12
property list uchar uint vertex_indices
end_header
-1.000000 1.000000 -1.000000 0.000000 1.000000 -0.000000 0.875000 0.500000 88 255 0 255
1.000000 1.000000 1.000000 0.000000 1.000000 -0.000000 0.625000 0.750000 88 255 0 255
1.000000 1.000000 -1.000000 0.000000 1.000000 -0.000000 0.625000 0.500000 96 251 34 255
1.000000 1.000000 1.000000 0.000000 -0.000000 1.000000 0.625000 0.750000 255 226 69 255
-1.000000 -1.000000 1.000000 0.000000 -0.000000 1.000000 0.375000 1.000000 255 244 1 255
1.000000 -1.000000 1.000000 0.000000 -0.000000 1.000000 0.375000 0.750000 255 244 0 255
-1.000000 1.000000 1.000000 -1.000000 0.000000 0.000000 0.625000 0.000000 245 28 192 255
-1.000000 -1.000000 -1.000000 -1.000000 0.000000 0.000000 0.375000 0.250000 0 102 255 255
-1.000000 -1.000000 1.000000 -1.000000 0.000000 0.000000 0.375000 0.000000 254 7 185 255
1.000000 -1.000000 -1.000000 0.000000 -1.000000 0.000000 0.375000 0.500000 3 102 255 255
-1.000000 -1.000000 1.000000 0.000000 -1.000000 0.000000 0.125000 0.750000 254 7 185 255
-1.000000 -1.000000 -1.000000 0.000000 -1.000000 0.000000 0.125000 0.500000 0 102 255 255
1.000000 1.000000 -1.000000 1.000000 -0.000000 0.000000 0.625000 0.500000 237 39 196 255
1.000000 -1.000000 1.000000 1.000000 -0.000000 0.000000 0.375000 0.750000 255 7 185 255
1.000000 -1.000000 -1.000000 1.000000 -0.000000 0.000000 0.375000 0.500000 3 102 255 255
-1.000000 1.000000 -1.000000 0.000000 0.000000 -1.000000 0.625000 0.250000 233 9 171 255
1.000000 -1.000000 -1.000000 0.000000 0.000000 -1.000000 0.375000 0.500000 3 102 255 255
-1.000000 -1.000000 -1.000000 0.000000 0.000000 -1.000000 0.375000 0.250000 0 102 255 255
-1.000000 1.000000 1.000000 0.000000 1.000000 0.000000 0.875000 0.750000 90 254 15 255
-1.000000 1.000000 1.000000 0.000000 0.000000 1.000000 0.625000 1.000000 255 244 0 255
-1.000000 1.000000 -1.000000 -1.000000 0.000000 0.000000 0.625000 0.250000 233 9 171 255
1.000000 -1.000000 1.000000 0.000000 -1.000000 0.000000 0.375000 0.750000 255 7 185 255
1.000000 1.000000 1.000000 1.000000 -0.000000 0.000000 0.625000 0.750000 255 3 185 255
1.000000 1.000000 -1.000000 0.000000 0.000000 -1.000000 0.625000 0.500000 237 39 196 255
3 0 1 2
3 3 4 5
3 6 7 8
3 9 10 11
3 12 13 14
3 15 16 17
3 0 18 1
3 3 19 4
3 6 20 7
3 9 21 10
3 12 22 13
3 15 23 16
